<svg id="eNh8ALs20931" xmlns="http://www.w3.org/2000/svg" xmlns:xlink="http://www.w3.org/1999/xlink" viewBox="0 0 194 213" shape-rendering="geometricPrecision" text-rendering="geometricPrecision"><style><![CDATA[#eNh8ALs209310 {animation: eNh8ALs209310_c_o 3000ms linear infinite normal forwards}@keyframes eNh8ALs209310_c_o { 0% {opacity: 0} 6.666667% {opacity: 0} 7% {opacity: 1} 100% {opacity: 1}} #eNh8ALs209326 {animation: eNh8ALs209326__sz 3000ms linear infinite normal forwards}@keyframes eNh8ALs209326__sz { 0% {width: 3.000003px;height: 0px} 16.666667% {width: 3.000003px;height: 0px} 20% {width: 3.000003px;height: 9315.564756px} 100% {width: 3.000003px;height: 9315.564756px}} #eNh8ALs209327 {animation: eNh8ALs209327__sz 3000ms linear infinite normal forwards}@keyframes eNh8ALs209327__sz { 0% {width: 3.000003px;height: 0px} 22% {width: 3.000003px;height: 0px} 33.333333% {width: 3.000003px;height: 9315.564756px} 100% {width: 3.000003px;height: 9315.564756px}} #eNh8ALs209329 {animation: eNh8ALs209329__sz 3000ms linear infinite normal forwards}@keyframes eNh8ALs209329__sz { 0% {width: 19.4px;height: 21.39667px} 33.333333% {width: 19.4px;height: 21.39667px} 100% {width: 19.4px;height: 742424.242424px}} #eNh8ALs209330_to {animation: eNh8ALs209330_to__to 3000ms linear infinite normal forwards}@keyframes eNh8ALs209330_to__to { 0% {transform: translate(97.998793px,165.484143px)} 37.666667% {transform: translate(97.998793px,165.484143px)} 100% {transform: translate(98.001214px,120.009483px)}} #eNh8ALs209330 {animation: eNh8ALs209330_c_o 3000ms linear infinite normal forwards}@keyframes eNh8ALs209330_c_o { 0% {opacity: 0} 37.666667% {opacity: 0} 57.333333% {opacity: 1} 100% {opacity: 1}}]]></style><g transform="translate(-.001285 0)"><path d="M29.818,59.545v109.091h136.363v-109.091h-36.363v4.545c0,6.363-4.093,11.364-10.001,13.182l-3.636,15.001c-.453,1.818-2.272,3.636-4.545,3.636h-27.272c-2.273,0-4.09-1.363-4.545-3.636L76.183,76.817c-5.91-1.363-10.001-6.363-10.001-12.727v-4.545h-36.364Z" fill="#99b5cd"/><path d="M143,105h-9.091-19.533c2.947,23.981.478,48.637,1.88,72.728h8.563c7.729,0,13.637-5.908,13.637-13.637v-13.636h4.544c7.729,0,13.637-5.908,13.637-13.637v-18.182c0-7.728-5.908-13.636-13.637-13.636Z" transform="translate(-.374715 0)" fill="#4d7c99"/><path d="M152.545,136.818c0,2.726-1.819,4.545-4.545,4.545h-4.545v-27.272h4.545c2.726,0,4.545,1.82,4.545,4.546v18.181Z" fill="#6c9abb"/><path d="M148,114.091h-4.545v27.272h4.545c2.726,0,4.545-1.819,4.545-4.545v-18.182c0-2.725-1.819-4.545-4.545-4.545Z" fill="#6c9abb"/><path d="M20.728,50.455h154.545c2.726,0,4.546-1.818,4.546-4.545v-27.274c0-2.728-1.82-4.545-4.546-4.545h-154.545c-2.728,0-4.546,1.818-4.546,4.545v27.273c0,2.728,1.818,4.546,4.546,4.546" fill="#eceff9"/><path d="M175.272,14.091v27.273c0,2.728-1.819,4.545-4.545,4.545h-154.545c0,2.728,1.818,4.545,4.546,4.545h154.545c2.726,0,4.546-1.818,4.546-4.545v-27.273c-.001-2.727-1.821-4.545-4.547-4.545" fill="#99cfff"/><path d="M29.818,27.728c2.508,0,4.545,2.037,4.545,4.545s-2.038,4.546-4.545,4.546c-2.508,0-4.546-2.038-4.546-4.546s2.038-4.545,4.546-4.545" fill="#014463"/><path id="eNh8ALs209310" d="M29.818,27.728c2.508,0,4.545,2.037,4.545,4.545s-2.038,4.546-4.545,4.546c-2.508,0-4.546-2.038-4.546-4.546s2.038-4.545,4.546-4.545" opacity="0" fill="#4a0"/><path d="M48,27.728c2.508,0,4.545,2.037,4.545,4.545s-2.038,4.546-4.545,4.546-4.545-2.038-4.545-4.546s2.037-4.545,4.545-4.545" fill="#014463"/><path d="M120.728,114.091h-45.456v50c0,2.726,1.818,4.546,4.546,4.546h36.363c2.726,0,4.546-1.82,4.546-4.546v-50Z" fill="#fff"/><path d="M134.363,105h-9.091-54.544c-2.728,0-4.546,1.82-4.546,4.545v54.546c0,7.729,5.908,13.637,13.637,13.637h36.363c7.729,0,13.637-5.908,13.637-13.637v-13.636h4.545c7.729,0,13.637-5.908,13.637-13.637v-18.182C148,110.908,142.092,105,134.363,105m-13.635,59.091c0,1.416016-.001,4.545-.001,4.545s-3.235016.001-4.545.001h-36.364c-1.441994,0-4.546-.001-4.546-.001s0-3.259936,0-4.545v-50h45.455v50Zm18.181-27.273c0,2.726-1.82,4.545-4.546,4.545h-4.545v-27.272h4.545c2.726,0,4.546,1.82,4.546,4.546v18.181Z" transform="translate(-.001 0)" fill="#014463"/><path d="M120.728,59.545h-45.456v4.545c0,2.728,1.818,4.545,4.546,4.545h36.363c2.726,0,4.546-1.818,4.546-4.545v-4.545Z" fill="#d5e3ef"/><polygon points="108.001,86.818 110.273,77.728 85.729,77.728 88.001,86.818" fill="#d5e3ef"/><path d="M148,36.818h-27.272c-2.726,0-4.546-1.818-4.546-4.546s1.82-4.545,4.546-4.545h27.272c2.726,0,4.545,1.817,4.545,4.545s-1.819,4.546-4.545,4.546" fill="#014463"/><path d="M175.272,195.909c2.726,0,4.546-1.82,4.546-4.546v-9.091c0-2.726-1.82-4.545-4.546-4.545h-154.544c-2.728,0-4.546,1.819-4.546,4.545v9.091c0,2.726,1.818,4.546,4.546,4.546h22.272c1.365,0,2.728-.91,3.183-1.82c2.273-4.545,6.363-7.271,11.364-7.271h80.91c4.999,0,9.091,2.726,11.364,7.271.452,1.367,1.815,1.82,3.178,1.82h22.273Z" fill="#eceff9"/><path d="M111.637,114.091c-2.726,0-4.546,1.82-4.546,4.546v45.454c0,2.726-1.819,4.546-4.546,4.546h13.637c1.466441,0,4.544-.001,4.544-.001s.002-3.285441.002-4.545v-50h-9.091Z" fill="#dde1e3"/><path d="M79.818,164.091v-45.454c0-2.726-1.818-4.546-4.546-4.546v50c0,1.289988,0,4.546,0,4.546s3.108934,0,4.546,0h4.545c-2.727,0-4.545-1.821-4.545-4.546" fill="#dde1e3"/><path d="M148,191.363c.453.91,1.363,1.363,1.82,2.273.452,1.362,1.815,2.272,3.178,2.272h22.274c2.726,0,4.546-1.82,4.546-4.546v-9.091c0-2.726-1.82-4.545-4.546-4.545v9.091c0,2.726-1.819,4.545-4.545,4.545h-22.727Z" fill="#7e8c9b"/><path d="M20.728,195.909h22.272c1.365,0,2.728-.91,3.183-1.82.455-.905.908-1.815,1.818-2.726h-31.819c0,2.726,1.818,4.546,4.546,4.546" fill="#c9d5e3"/><rect width="45.455" height="4.545" rx="0" ry="0" transform="translate(75.272 59.545)" fill="#99cfff"/><path d="M188.909,45.909v-27.273C188.909,10.908,183.001,5,175.272,5L20.728,5C12.999,5,7.091,10.908,7.091,18.636v27.273c0,7.728,5.908,13.636,13.637,13.636v109.091c-7.729,0-13.637,5.908-13.637,13.636v9.091c0,7.729,5.908,13.637,13.637,13.637L43,205c5,0,9.091-2.726,11.364-7.271.455-1.367,1.817-1.819,3.183-1.819h80.91c1.363,0,2.726.91,3.179,1.819C143.907,202.274,148,205,152.998,205h22.274c7.729,0,13.637-5.908,13.637-13.637v-9.091c0-7.728-5.908-13.636-13.637-13.636v-109.091c7.729,0,13.637-5.908,13.637-13.636m-172.727,0v-27.273c0-2.728,1.818-4.545,4.546-4.545h154.545c2.726,0,4.546,1.818,4.546,4.545v27.273c0,2.728-1.82,4.545-4.546,4.545h-4.545-45.455-54.545-45.456-4.545c-2.727.001-4.545-1.817-4.545-4.545M79.818,68.636c-2.728,0-4.546-1.818-4.546-4.545v-4.545h45.455v4.545c0,2.728-1.82,4.545-4.546,4.545h-36.363Zm30.455,9.092l-2.272,9.091h-20.002l-2.272-9.091h24.546Zm69.545,104.544v9.091c0,2.726-1.82,4.546-4.546,4.546h-22.274c-1.362,0-2.726-.91-3.178-1.82-2.273-4.545-6.365-7.271-11.364-7.271h-80.91c-5,0-9.091,2.726-11.364,7.271-.455,1.367-1.818,1.82-3.183,1.82h-22.271c-2.728,0-4.546-1.82-4.546-4.546v-9.091c0-2.726,1.818-4.545,4.546-4.545h4.545h145.455h4.545c2.725.001,4.545,1.82,4.545,4.545m-13.636-13.635h-136.364v-109.092h36.363v4.545c0,6.363,4.091,11.364,10.001,13.182l3.636,15.454c.455,1.82,2.272,3.638,4.545,3.638h27.273c2.272,0,4.092-1.365,4.545-3.638l3.636-15.454c5.908-1.818,10.001-6.818,10.001-13.182v-4.545h36.363v109.092Z" fill="#014463"/><path d="M20.728,86.818h27.272c2.728,0,4.545-1.818,4.545-4.546s-1.818-4.545-4.545-4.545h-27.272c-2.728,0-4.546,1.817-4.546,4.545s1.818,4.546,4.546,4.546" fill="#d98b37"/><path d="M81.181,77.728h-20.454C58.909,72.272,53.909,68.637,48,68.637h-27.272c-7.729,0-13.637,5.908-13.637,13.636c0,7.729,5.908,13.637,13.637,13.637h27.272c5.908,0,10.909-3.636,12.727-9.091h20.454c1.82,0,3.183-1.818,3.183-4.546s-1.363-4.545-3.183-4.545M48,86.818h-27.272c-2.728,0-4.546-1.818-4.546-4.546s1.818-4.545,4.546-4.545h27.272c2.728,0,4.545,1.817,4.545,4.545s-1.817,4.546-4.545,4.546" fill="#014463"/></g><rect id="eNh8ALs209326" width="3.000003" height="0" rx="0" ry="0" transform="matrix(.999999 0 0 0.000929 96.062656 96.341124)" fill="#a35425" stroke-width="0"/><rect id="eNh8ALs209327" width="3.000003" height="0" rx="0" ry="0" transform="matrix(.999999 0 0 0.005872 96.062656 113.9386)" fill="#a35425" stroke-width="0"/><rect id="eNh8ALs209329" width="19.4" height="21.39667" rx="0" ry="0" transform="matrix(2.342757 0 0-.000066 75.276227 168.637411)" fill="#a35425" stroke="#a35425" stroke-width="0.1" stroke-miterlimit="1"/><g id="eNh8ALs209330_to" transform="translate(97.998793,165.484143)"><g id="eNh8ALs209330" transform="translate(-97.998714,-163.793411)" opacity="0"><path d="M76.178655,164.13947q4.630299,5.04957,26.841276-.12389q16.795784-3.912134,16.794203,0" transform="translate(0-.048468)" fill="#a35425" stroke="#443008" stroke-width="2.5"/><path d="M76.179655,164.091001q7.705844-6.213418,26.36406,0" transform="translate(0 0.000001)" fill="#a35425" stroke="#443008" stroke-width="2.5" stroke-linecap="round"/></g></g></svg>