 <svg width="1393"
         height="134"
         viewBox="0 0 1393 134"
         fill="none"
         xmlns="http://www.w3.org/2000/svg">
      <g id="Frame 1">
        <g id="Marius">
          <g id="M"
             filter="url(#filter7_d)">
            <path d="M113.712 121H102.768V111.064C96.144 105.016 76.704 87.064 44.448 57.208C30.336 44.056 21.168 35.512 16.944 31.576V51.736L91.392 121H74.976L74.112 120.136C46.176 94.216 27.168 76.552 17.088 67.144V121H6V6.52L59.856 56.632L113.712 6.52V121ZM67.776 63.976L102.768 96.52V31.576C99.888 34.168 95.568 38.152 89.808 43.528C79.632 53.032 72.288 59.848 67.776 63.976Z"
                  fill="#4C566A" />
          </g>
          <g id="a"
             filter="url(#filter8_d)">
            <path d="M128 121L178.112 6.52L228.224 121H217.712L159.824 74.776L139.52 121H128ZM164.288 64.552L207.344 99.112L203.456 90.184L178.112 33.016L164.288 64.552Z"
                  fill="#4C566A" />
          </g>
          <g id="r"
             filter="url(#filter9_d)">
            <path d="M318.008 121H305.912L288.488 81.112C285.32 81.88 282.008 82.264 278.552 82.264H245V71.176H278.552C280.472 71.176 282.248 71.032 283.88 70.744L278.84 58.936H290.792L294.248 66.712C300.008 62.68 303.512 56.824 304.76 49.144C306.008 41.272 304.568 34.312 300.44 28.264C298.424 25.384 296.12 23.08 293.528 21.352H293.384C289.64 18.856 284.696 17.608 278.552 17.608H272.792L278.84 31.576H266.744L260.552 17.608H256.232V31.432H245V6.52H278.552C292.184 6.616 302.504 11.752 309.512 21.928C315.368 30.568 317.432 40.216 315.704 50.872C313.88 61.816 308.744 70.216 300.296 76.072H300.152C299.672 76.456 299.192 76.744 298.712 76.936L318.008 121Z"
                  fill="#4C566A" />
          </g>
          <g id="i"
             filter="url(#filter10_d)">
            <path d="M383.448 121H345V109.624H358.392V6.52H369.912V109.624H383.448V121Z"
                  fill="#4C566A" />
          </g>
          <g id="u1"
             filter="url(#filter11_d)">
            <path d="M451.968 121L402 6.80799H413.376L429.072 42.088L452.112 94.504L485.808 17.32H429.936L426.192 6.80799H492.432H502.08L451.968 121Z"
                  fill="#4C566A" />
          </g>
          <g id="s"
             filter="url(#filter12_d)">
            <path d="M551.976 120.856V109.912H555C564.792 109.624 571.32 106.216 574.584 99.688C575.928 96.808 576.6 93.544 576.6 89.896C576.6 86.92 575.784 83.656 574.152 80.104C573.48 78.856 572.76 77.848 571.992 77.08C569.88 75.16 567.96 73.72 566.232 72.76H566.088C563.88 71.512 561.96 70.504 560.328 69.736C559.464 69.448 558.312 69.016 556.872 68.44C552.552 66.904 549.336 65.656 547.224 64.696C546.744 64.504 546.264 64.312 545.784 64.12L534.84 75.496H519L535.416 58.648C527.352 53.08 523.272 45.544 523.176 36.04C523.272 27.016 526.776 19.72 533.688 14.152C540.024 9.15999 547.368 6.66399 555.72 6.66399C567.144 6.75999 576.792 11.08 584.664 19.624L586.536 21.928L584.664 23.944L584.52 24.088L571.704 37.48L563.064 29.992L570.84 21.928C566.424 19.144 561.384 17.752 555.72 17.752C548.136 17.752 542.28 20.104 538.152 24.808C535.56 27.976 534.264 31.72 534.264 36.04C534.264 42.088 537.096 46.888 542.76 50.44C542.952 50.536 543.048 50.584 543.048 50.584L551.112 42.376L559.752 49.72L554.136 55.624C555.768 56.2 557.448 56.824 559.176 57.496C575.784 63.448 585.096 72.328 587.112 84.136C587.496 86.056 587.688 88.024 587.688 90.04C587.592 94.456 586.824 98.392 585.384 101.848C580.008 114.328 569.928 120.664 555.144 120.856H551.976Z"
                  fill="#4C566A" />
          </g>
        </g>
        <g id="Schulze">
          <g id="S"
             filter="url(#filter0_d)">
            <path d="M706.976 121.144V110.056H710C719.792 109.864 726.32 106.456 729.584 99.832C730.928 96.952 731.6 93.688 731.6 90.04C731.6 87.064 730.784 83.8 729.152 80.248C728.48 79 727.76 77.992 726.992 77.224C724.88 75.304 722.96 73.864 721.232 72.904H721.088C718.88 71.656 716.96 70.648 715.328 69.88C714.56 69.592 713.408 69.16 711.872 68.584C707.552 67.048 704.336 65.8 702.224 64.84C701.744 64.648 701.264 64.456 700.784 64.264L689.84 75.64H674L690.416 58.792C682.352 53.224 678.272 45.688 678.176 36.184C678.272 27.16 681.776 19.864 688.688 14.296C695.024 9.30399 702.368 6.80799 710.72 6.80799C722.144 6.90399 731.792 11.224 739.664 19.768L741.68 21.928L739.664 24.088V24.232L709.136 55.768C710.672 56.344 712.352 56.968 714.176 57.64C730.784 63.592 740.096 72.52 742.112 84.424C742.496 86.248 742.688 88.168 742.688 90.184C742.592 94.6 741.824 98.536 740.384 101.992C735.008 114.472 724.928 120.808 710.144 121L706.976 121.144ZM710.72 17.896C703.136 17.896 697.28 20.248 693.152 24.952C690.56 28.12 689.264 31.864 689.264 36.184C689.264 42.232 692.096 47.032 697.76 50.584C697.952 50.68 698.048 50.728 698.048 50.728L725.84 22.072C721.424 19.288 716.384 17.896 710.72 17.896Z"
                  fill="#4C566A"
                  stroke="#4c566A" />
          </g>
          <g id="c"
             filter="url(#filter1_d)">
            <path d="M817.168 121C801.904 121 788.752 115.72 777.712 105.16C777.328 104.872 777.04 104.584 776.848 104.296C766 92.584 760.384 79.096 760 63.832C760 48.568 765.28 35.416 775.84 24.376C776.224 24.088 776.56 23.8 776.848 23.512C788.464 12.664 801.904 7.09599 817.168 6.80799C832.432 6.80799 845.584 12.088 856.624 22.648C857.008 22.936 857.296 23.224 857.488 23.512C860.464 26.488 863.104 29.704 865.408 33.16L868.144 38.056H855.328L854.464 36.76C850.912 31.96 846.304 27.784 840.64 24.232C838.816 23.08 837.184 22.264 835.744 21.784L835.6 21.64C829.648 19.144 823.504 17.848 817.168 17.752C804.592 17.752 793.792 22.216 784.768 31.144C775.744 40.36 771.184 51.256 771.088 63.832C771.088 76.312 775.408 87.016 784.048 95.944C785.104 97 786.112 97.96 787.072 98.824H787.216C793.552 104.776 801.904 108.376 812.272 109.624C814 109.816 815.632 109.912 817.168 109.912C830.032 109.912 840.976 105.352 850 96.232C851.344 94.792 852.592 93.352 853.744 91.912L854.752 90.616H868L864.688 95.512C862.576 98.68 860.176 101.608 857.488 104.296C845.872 115.048 832.432 120.616 817.168 121Z"
                  fill="#4C566A" />
          </g>
          <g id="h"
             filter="url(#filter2_d)">
            <path d="M972.36 121H961.128V77.512L940.824 88.456V75.784L961.128 64.84V54.472L902.088 86.296V96.52L922.392 85.576V98.248L902.088 109.192V121H891V6.66399H902.088V73.624L961.128 41.8V6.66399H972.36V121Z"
                  fill="#4C566A" />
          </g>
          <g id="u"
             filter="url(#filter3_d)">
            <path d="M1046.97 121L997 6.80799H1008.38L1024.07 42.088L1047.11 94.504L1080.81 17.32H1024.94L1021.19 6.80799H1087.43H1097.08L1046.97 121Z"
                  fill="#4C566A" />
          </g>
          <g id="l"
             filter="url(#filter4_d)">
            <path d="M1113 104.008V6.52H1124.66V104.008H1113ZM1113 121V109.624H1178.95V121H1113Z"
                  fill="#4C566A" />
          </g>
          <g id="z"
             filter="url(#filter5_d)">
            <path d="M1280.25 121H1195V111.208L1249.14 49.288H1241.22V37.768H1259.08L1276.36 18.04H1211.42V6.66399H1293.21V16.168L1211.85 109.624H1280.25V121Z"
                  fill="#4C566A" />
          </g>
          <g id="e"
             filter="url(#filter6_d)">
            <path d="M1383.14 121H1311V6.52H1383.14V17.896H1322.38V94.792L1383.14 64.12V76.216L1322.38 106.888V109.624H1383.14V121Z"
                  fill="#4C566A" />
          </g>
        </g>
      </g>
      <defs>
        <filter id="filter0_d"
                x="670"
                y="6.80799"
                width="76.688"
                height="122.336"
                filterUnits="userSpaceOnUse"
                color-interpolation-filters="sRGB">
          <feFlood flood-opacity="0"
                   result="BackgroundImageFix" />
          <feColorMatrix in="SourceAlpha"
                         type="matrix"
                         values="0 0 0 0 0 0 0 0 0 0 0 0 0 0 0 0 0 0 127 0" />
          <feOffset dy="4" />
          <feGaussianBlur stdDeviation="2" />
          <feColorMatrix type="matrix"
                         values="0 0 0 0 0 0 0 0 0 0 0 0 0 0 0 0 0 0 0.25 0" />
          <feBlend mode="normal"
                   in2="BackgroundImageFix"
                   result="effect1_dropShadow" />
          <feBlend mode="normal"
                   in="SourceGraphic"
                   in2="effect1_dropShadow"
                   result="shape" />
        </filter>
        <filter id="filter1_d"
                x="756"
                y="6.80799"
                width="116.144"
                height="122.192"
                filterUnits="userSpaceOnUse"
                color-interpolation-filters="sRGB">
          <feFlood flood-opacity="0"
                   result="BackgroundImageFix" />
          <feColorMatrix in="SourceAlpha"
                         type="matrix"
                         values="0 0 0 0 0 0 0 0 0 0 0 0 0 0 0 0 0 0 127 0" />
          <feOffset dy="4" />
          <feGaussianBlur stdDeviation="2" />
          <feColorMatrix type="matrix"
                         values="0 0 0 0 0 0 0 0 0 0 0 0 0 0 0 0 0 0 0.25 0" />
          <feBlend mode="normal"
                   in2="BackgroundImageFix"
                   result="effect1_dropShadow" />
          <feBlend mode="normal"
                   in="SourceGraphic"
                   in2="effect1_dropShadow"
                   result="shape" />
        </filter>
        <filter id="filter2_d"
                x="887"
                y="6.66399"
                width="89.36"
                height="122.336"
                filterUnits="userSpaceOnUse"
                color-interpolation-filters="sRGB">
          <feFlood flood-opacity="0"
                   result="BackgroundImageFix" />
          <feColorMatrix in="SourceAlpha"
                         type="matrix"
                         values="0 0 0 0 0 0 0 0 0 0 0 0 0 0 0 0 0 0 127 0" />
          <feOffset dy="4" />
          <feGaussianBlur stdDeviation="2" />
          <feColorMatrix type="matrix"
                         values="0 0 0 0 0 0 0 0 0 0 0 0 0 0 0 0 0 0 0.25 0" />
          <feBlend mode="normal"
                   in2="BackgroundImageFix"
                   result="effect1_dropShadow" />
          <feBlend mode="normal"
                   in="SourceGraphic"
                   in2="effect1_dropShadow"
                   result="shape" />
        </filter>
        <filter id="filter3_d"
                x="993"
                y="6.80799"
                width="108.08"
                height="122.192"
                filterUnits="userSpaceOnUse"
                color-interpolation-filters="sRGB">
          <feFlood flood-opacity="0"
                   result="BackgroundImageFix" />
          <feColorMatrix in="SourceAlpha"
                         type="matrix"
                         values="0 0 0 0 0 0 0 0 0 0 0 0 0 0 0 0 0 0 127 0" />
          <feOffset dy="4" />
          <feGaussianBlur stdDeviation="2" />
          <feColorMatrix type="matrix"
                         values="0 0 0 0 0 0 0 0 0 0 0 0 0 0 0 0 0 0 0.25 0" />
          <feBlend mode="normal"
                   in2="BackgroundImageFix"
                   result="effect1_dropShadow" />
          <feBlend mode="normal"
                   in="SourceGraphic"
                   in2="effect1_dropShadow"
                   result="shape" />
        </filter>
        <filter id="filter4_d"
                x="1109"
                y="6.52"
                width="73.952"
                height="122.48"
                filterUnits="userSpaceOnUse"
                color-interpolation-filters="sRGB">
          <feFlood flood-opacity="0"
                   result="BackgroundImageFix" />
          <feColorMatrix in="SourceAlpha"
                         type="matrix"
                         values="0 0 0 0 0 0 0 0 0 0 0 0 0 0 0 0 0 0 127 0" />
          <feOffset dy="4" />
          <feGaussianBlur stdDeviation="2" />
          <feColorMatrix type="matrix"
                         values="0 0 0 0 0 0 0 0 0 0 0 0 0 0 0 0 0 0 0.25 0" />
          <feBlend mode="normal"
                   in2="BackgroundImageFix"
                   result="effect1_dropShadow" />
          <feBlend mode="normal"
                   in="SourceGraphic"
                   in2="effect1_dropShadow"
                   result="shape" />
        </filter>
        <filter id="filter5_d"
                x="1191"
                y="6.66399"
                width="106.208"
                height="122.336"
                filterUnits="userSpaceOnUse"
                color-interpolation-filters="sRGB">
          <feFlood flood-opacity="0"
                   result="BackgroundImageFix" />
          <feColorMatrix in="SourceAlpha"
                         type="matrix"
                         values="0 0 0 0 0 0 0 0 0 0 0 0 0 0 0 0 0 0 127 0" />
          <feOffset dy="4" />
          <feGaussianBlur stdDeviation="2" />
          <feColorMatrix type="matrix"
                         values="0 0 0 0 0 0 0 0 0 0 0 0 0 0 0 0 0 0 0.25 0" />
          <feBlend mode="normal"
                   in2="BackgroundImageFix"
                   result="effect1_dropShadow" />
          <feBlend mode="normal"
                   in="SourceGraphic"
                   in2="effect1_dropShadow"
                   result="shape" />
        </filter>
        <filter id="filter6_d"
                x="1307"
                y="6.52"
                width="80.144"
                height="122.48"
                filterUnits="userSpaceOnUse"
                color-interpolation-filters="sRGB">
          <feFlood flood-opacity="0"
                   result="BackgroundImageFix" />
          <feColorMatrix in="SourceAlpha"
                         type="matrix"
                         values="0 0 0 0 0 0 0 0 0 0 0 0 0 0 0 0 0 0 127 0" />
          <feOffset dy="4" />
          <feGaussianBlur stdDeviation="2" />
          <feColorMatrix type="matrix"
                         values="0 0 0 0 0 0 0 0 0 0 0 0 0 0 0 0 0 0 0.25 0" />
          <feBlend mode="normal"
                   in2="BackgroundImageFix"
                   result="effect1_dropShadow" />
          <feBlend mode="normal"
                   in="SourceGraphic"
                   in2="effect1_dropShadow"
                   result="shape" />
        </filter>
        <filter id="filter7_d"
                x="2"
                y="6.52"
                width="115.712"
                height="122.48"
                filterUnits="userSpaceOnUse"
                color-interpolation-filters="sRGB">
          <feFlood flood-opacity="0"
                   result="BackgroundImageFix" />
          <feColorMatrix in="SourceAlpha"
                         type="matrix"
                         values="0 0 0 0 0 0 0 0 0 0 0 0 0 0 0 0 0 0 127 0" />
          <feOffset dy="4" />
          <feGaussianBlur stdDeviation="2" />
          <feColorMatrix type="matrix"
                         values="0 0 0 0 0 0 0 0 0 0 0 0 0 0 0 0 0 0 0.25 0" />
          <feBlend mode="normal"
                   in2="BackgroundImageFix"
                   result="effect1_dropShadow" />
          <feBlend mode="normal"
                   in="SourceGraphic"
                   in2="effect1_dropShadow"
                   result="shape" />
        </filter>
        <filter id="filter8_d"
                x="124"
                y="6.52"
                width="108.224"
                height="122.48"
                filterUnits="userSpaceOnUse"
                color-interpolation-filters="sRGB">
          <feFlood flood-opacity="0"
                   result="BackgroundImageFix" />
          <feColorMatrix in="SourceAlpha"
                         type="matrix"
                         values="0 0 0 0 0 0 0 0 0 0 0 0 0 0 0 0 0 0 127 0" />
          <feOffset dy="4" />
          <feGaussianBlur stdDeviation="2" />
          <feColorMatrix type="matrix"
                         values="0 0 0 0 0 0 0 0 0 0 0 0 0 0 0 0 0 0 0.25 0" />
          <feBlend mode="normal"
                   in2="BackgroundImageFix"
                   result="effect1_dropShadow" />
          <feBlend mode="normal"
                   in="SourceGraphic"
                   in2="effect1_dropShadow"
                   result="shape" />
        </filter>
        <filter id="filter9_d"
                x="241"
                y="6.52"
                width="81.008"
                height="122.48"
                filterUnits="userSpaceOnUse"
                color-interpolation-filters="sRGB">
          <feFlood flood-opacity="0"
                   result="BackgroundImageFix" />
          <feColorMatrix in="SourceAlpha"
                         type="matrix"
                         values="0 0 0 0 0 0 0 0 0 0 0 0 0 0 0 0 0 0 127 0" />
          <feOffset dy="4" />
          <feGaussianBlur stdDeviation="2" />
          <feColorMatrix type="matrix"
                         values="0 0 0 0 0 0 0 0 0 0 0 0 0 0 0 0 0 0 0.25 0" />
          <feBlend mode="normal"
                   in2="BackgroundImageFix"
                   result="effect1_dropShadow" />
          <feBlend mode="normal"
                   in="SourceGraphic"
                   in2="effect1_dropShadow"
                   result="shape" />
        </filter>
        <filter id="filter10_d"
                x="341"
                y="6.52"
                width="46.448"
                height="122.48"
                filterUnits="userSpaceOnUse"
                color-interpolation-filters="sRGB">
          <feFlood flood-opacity="0"
                   result="BackgroundImageFix" />
          <feColorMatrix in="SourceAlpha"
                         type="matrix"
                         values="0 0 0 0 0 0 0 0 0 0 0 0 0 0 0 0 0 0 127 0" />
          <feOffset dy="4" />
          <feGaussianBlur stdDeviation="2" />
          <feColorMatrix type="matrix"
                         values="0 0 0 0 0 0 0 0 0 0 0 0 0 0 0 0 0 0 0.25 0" />
          <feBlend mode="normal"
                   in2="BackgroundImageFix"
                   result="effect1_dropShadow" />
          <feBlend mode="normal"
                   in="SourceGraphic"
                   in2="effect1_dropShadow"
                   result="shape" />
        </filter>
        <filter id="filter11_d"
                x="398"
                y="6.80799"
                width="108.08"
                height="122.192"
                filterUnits="userSpaceOnUse"
                color-interpolation-filters="sRGB">
          <feFlood flood-opacity="0"
                   result="BackgroundImageFix" />
          <feColorMatrix in="SourceAlpha"
                         type="matrix"
                         values="0 0 0 0 0 0 0 0 0 0 0 0 0 0 0 0 0 0 127 0" />
          <feOffset dy="4" />
          <feGaussianBlur stdDeviation="2" />
          <feColorMatrix type="matrix"
                         values="0 0 0 0 0 0 0 0 0 0 0 0 0 0 0 0 0 0 0.25 0" />
          <feBlend mode="normal"
                   in2="BackgroundImageFix"
                   result="effect1_dropShadow" />
          <feBlend mode="normal"
                   in="SourceGraphic"
                   in2="effect1_dropShadow"
                   result="shape" />
        </filter>
        <filter id="filter12_d"
                x="515"
                y="6.66399"
                width="76.688"
                height="122.192"
                filterUnits="userSpaceOnUse"
                color-interpolation-filters="sRGB">
          <feFlood flood-opacity="0"
                   result="BackgroundImageFix" />
          <feColorMatrix in="SourceAlpha"
                         type="matrix"
                         values="0 0 0 0 0 0 0 0 0 0 0 0 0 0 0 0 0 0 127 0" />
          <feOffset dy="4" />
          <feGaussianBlur stdDeviation="2" />
          <feColorMatrix type="matrix"
                         values="0 0 0 0 0 0 0 0 0 0 0 0 0 0 0 0 0 0 0.25 0" />
          <feBlend mode="normal"
                   in2="BackgroundImageFix"
                   result="effect1_dropShadow" />
          <feBlend mode="normal"
                   in="SourceGraphic"
                   in2="effect1_dropShadow"
                   result="shape" />
        </filter>
      </defs>
    </svg>